<?xml version="1.0" encoding="UTF-8"?>
<!DOCTYPE svg  PUBLIC '-//W3C//DTD SVG 20010904//EN'  'http://www.w3.org/TR/2001/REC-SVG-20010904/DTD/svg10.dtd'>
<svg width="625px" height="625px" version="1.0" viewBox="0 0 6250 6250" xmlns="http://www.w3.org/2000/svg">
<g fill="#d9aa26">
<path d="m2940 3819c-319-83-530-359-530-694 0-408 307-715 715-715s715 307 715 715c0 337-212 613-534 695-105 27-262 26-366-1z"/>
</g>
<g fill="#5d152a">
<path d="m0 5704v-547l23 24c13 13 57 71 99 129 222 307 511 596 818 818 58 42 116 86 129 99l24 23h-547-546v-546z"/>
<path d="m5181 6227c13-13 71-57 129-99 307-222 596-511 818-818 42-58 86-116 99-129l23-24v547 546h-546-547l24-23z"/>
<path d="m0 546v-546h546 547l-24 23c-13 13-71 57-129 99-307 222-596 511-818 818-42 58-86 116-99 129l-23 24v-547z"/>
<path d="m6217 1058c-14-18-66-87-115-153-220-296-494-567-792-783-58-42-116-86-129-99l-24-23h547 546v545c0 300-1 545-3 545s-15-15-30-32z"/>
</g>
<g fill="#c67a25">
<path d="m2935 4678c-637-71-1181-554-1330-1180-252-1065 607-2045 1693-1928 652 71 1196 548 1347 1182 254 1072-613 2049-1710 1926zm413-343c247-47 483-175 658-356 95-99 151-178 212-296 96-188 136-352 136-558s-40-370-137-559c-173-339-493-578-875-653-116-22-318-22-434 0-508 100-895 487-995 995-22 116-22 318 0 434 75 382 314 702 653 875 145 74 279 115 454 137 62 8 242-3 328-19z"/>
</g>
<g fill="#d18f24">
<path d="m3e3 4374c-315-40-573-165-776-375-95-99-151-178-212-296-99-195-136-351-136-578s37-383 137-579c173-339 492-577 875-653 118-23 356-23 474 0 509 101 894 486 995 995 23 118 23 356 0 474-76 383-314 702-653 875-181 93-336 132-544 138-69 2-141 1-160-1zm286-574c374-95 606-472 514-836-110-432-582-657-976-464-293 143-452 478-374 786 95 374 472 606 836 514z"/>
</g>
<g fill="#b96a28">
<path d="m2911 4989c-47-5-137-21-200-35-707-159-1258-709-1415-1415-226-1016 406-2018 1415-2243 1016-226 2018 406 2243 1415 226 1016-406 2018-1415 2243-198 44-421 56-628 35zm367-329c652-71 1193-545 1347-1180 197-818-319-1655-1145-1855-818-197-1655 319-1855 1145-73 302-50 619 65 914 250 639 915 1048 1588 976z"/>
</g>
<g fill="#a9552d">
<path d="m2920 5320c-830-80-1539-611-1844-1380-102-259-150-517-150-815 0-228 15-351 70-564 195-763 802-1370 1565-1565 213-55 336-70 564-70s351 15 564 70c763 195 1370 802 1565 1565 55 213 70 336 70 564s-15 351-70 564c-217 849-930 1485-1808 1616-134 19-397 27-526 15zm381-350c643-65 1211-463 1489-1044 72-150 111-258 144-409 39-173 52-358 38-527-55-666-450-1245-1046-1530-150-72-258-111-409-144-739-166-1517 155-1942 799-67 103-161 294-203 416-274 788 34 1677 743 2144 345 227 781 335 1186 295z"/>
</g>
<g fill="#9d4530">
<path d="m2955 5634c-313-31-514-76-750-168-317-124-581-295-829-536-414-402-657-883-742-1465-25-166-25-514 0-680 81-556 306-1018 686-1409 402-414 883-657 1465-742 166-25 514-25 680 0 472 69 885 246 1240 533 129 104 330 311 426 438 219 292 370 619 449 975 40 182 54 318 54 545 0 350-48 613-170 923-131 336-322 621-590 882-383 373-846 602-1377 681-126 19-448 32-542 23zm475-350c779-116 1435-634 1724-1364 101-255 149-512 149-795 0-216-15-333-69-545-195-762-802-1369-1564-1564-212-54-329-69-545-69s-333 15-545 69c-762 195-1369 802-1564 1564-54 212-69 329-69 545 0 283 48 540 149 795 279 704 890 1206 1641 1350 221 42 470 47 693 14z"/>
</g>
<g fill="#8c3135">
<path d="m2895 5924c-16-2-73-9-125-15-131-15-312-53-453-94-986-293-1737-1113-1941-2120-44-217-51-298-51-570s7-353 51-570c221-1094 1085-1958 2179-2179 217-44 298-51 570-51s353 7 570 51c1007 204 1827 955 2120 1941 83 283 110 477 110 808 0 272-7 353-51 570-204 1007-955 1828-1941 2119-269 80-452 107-763 111-135 2-258 1-275-1zm582-333c529-79 993-308 1377-681 414-402 658-884 742-1465 24-164 24-476 0-640-80-555-306-1018-686-1409-352-362-771-597-1260-706-331-74-719-74-1050 0-380 85-736 256-1035 497-129 104-330 311-426 438-333 443-503 950-503 1500 0 329 51 600 170 903 131 336 322 621 590 882 248 241 512 412 829 536 236 92 437 137 750 168 87 9 377-5 502-23z"/>
</g>
<g fill="#802238">
<path d="m2930 6204c-855-60-1629-451-2168-1094-384-459-615-990-699-1610-23-173-23-577 0-750 84-620 315-1151 699-1610 501-597 1185-968 1988-1077 173-23 577-23 750 0 803 109 1487 480 1988 1077 384 459 615 990 699 1610 23 173 23 577 0 750-84 620-315 1151-699 1610-500 596-1195 973-1983 1075-117 15-465 27-575 19zm565-318c528-80 970-271 1370-591 507-405 860-985 989-1620 43-213 51-299 51-550s-8-337-51-550c-221-1094-1085-1958-2179-2179-213-43-299-51-550-51s-337 8-550 51c-1007 204-1827 955-2120 1941-82 277-110 479-110 788 0 251 8 337 51 550 204 1007 955 1827 1941 2120 141 41 322 79 453 94 52 6 109 13 125 15 68 10 485-3 580-18z"/>
</g>
<g fill="#721836">
<path d="m1031 6223c-117-64-376-277-552-452-180-181-391-439-453-555l-26-49v-2042-2042l26-49c62-116 273-374 453-555 181-180 439-391 555-453l49-26h2042 2042l49 26c116 62 374 273 555 453 180 181 391 439 453 555l26 49v2042 2042l-26 49c-62 116-273 374-453 555-181 180-439 391-555 453l-49 26-4092-2-44-25zm2454-58c786-101 1483-479 1983-1075 384-459 615-991 699-1610 23-171 23-539 0-710-84-619-315-1151-699-1610-455-542-1074-905-1783-1044-349-68-771-68-1120 0-709 139-1328 502-1783 1044-384 459-615 991-699 1610-23 171-23 539 0 710 84 619 315 1151 699 1610 539 643 1314 1034 2168 1094 105 7 416-4 535-19z"/>
</g>
</svg>
